<svg xmlns="http://www.w3.org/2000/svg" width="17.526" height="20.78" viewBox="0 0 17.526 20.78">
  <path id="Apple_logo_black" d="M14.759,20.943a2.959,2.959,0,0,1-3.556.408,4.505,4.505,0,0,0-3.743,0c-1.657.715-2.537.507-3.535-.408-5.636-5.8-4.8-14.64,1.6-14.973,1.553.083,2.641.859,3.556.923,1.36-.277,2.662-1.069,4.118-.965A5.015,5.015,0,0,1,17.13,8a4.571,4.571,0,0,0,.559,8.235,11.69,11.69,0,0,1-2.932,4.721ZM8.957,5.908A4.734,4.734,0,0,1,13.283,1C13.614,3.974,10.579,6.2,8.957,5.908Z" transform="translate(-0.164 -1)" fill="#fff" opacity="0.8"/>
</svg>
