<svg xmlns="http://www.w3.org/2000/svg" width="20.836" height="24.706" viewBox="0 0 20.836 24.706">
  <path id="Apple_logo_black" d="M17.517,24.711c-1.34,1.3-2.819,1.1-4.228.485a5.357,5.357,0,0,0-4.45,0c-1.971.851-3.016.6-4.2-.485-6.7-6.9-5.711-17.406,1.9-17.8,1.847.1,3.14,1.021,4.228,1.1,1.617-.329,3.165-1.271,4.9-1.147a5.963,5.963,0,0,1,4.673,2.465A5.435,5.435,0,0,0,21,19.116a13.9,13.9,0,0,1-3.486,5.613Zm-6.9-17.876A5.629,5.629,0,0,1,15.761,1C16.154,4.536,12.547,7.181,10.619,6.835Z" transform="translate(-0.164 -1)" fill="#fff"/>
</svg>
